<svg version="1.1" xmlns="http://www.w3.org/2000/svg" xmlns:xlink="http://www.w3.org/1999/xlink" width="585.8000000000001" height="404.20000000000005"><defs><linearGradient id="xddinhrslDRU" x1="1722.4000014305116px" x2="674px" y1="1056.4000014305116px" y2="728.2000007152558px" gradientUnits="userSpaceOnUse"><stop offset="0" stop-color="rgb(211,211,211)" stop-opacity="1"/><stop offset="1" stop-color="rgb(211,211,211)" stop-opacity="1"/></linearGradient><linearGradient id="kvybazOBbMQG" x1="1198.2000007152558px" x2="980px" y1="1223.4000021457673px" y2="1473.600002861023px" gradientUnits="userSpaceOnUse"><stop offset="0" stop-color="rgb(211,211,211)" stop-opacity="1"/><stop offset="1" stop-color="rgb(211,211,211)" stop-opacity="1"/></linearGradient><linearGradient id="UMidanXEkfPp" x1="1472.2000007152558px" x2="1722.4000014305116px" y1="1184.4000021457673px" y2="1056.4000014305116px" gradientUnits="userSpaceOnUse"><stop offset="0" stop-color="rgb(211,211,211)" stop-opacity="1"/><stop offset="1" stop-color="rgb(211,211,211)" stop-opacity="1"/></linearGradient><linearGradient id="ZvTqXbRQsUbo" x1="1722.4000014305116px" x2="674px" y1="1184.4000021457673px" y2="728.2000007152558px" gradientUnits="userSpaceOnUse"><stop offset="0" stop-color="rgb(211,211,211)" stop-opacity="1"/><stop offset="1" stop-color="rgb(211,211,211)" stop-opacity="1"/></linearGradient><linearGradient id="fJZlQypFXpfp" x1="400px" x2="980px" y1="1095.4000014305116px" y2="1473.600002861023px" gradientUnits="userSpaceOnUse"><stop offset="0" stop-color="rgb(211,211,211)" stop-opacity="1"/><stop offset="1" stop-color="rgb(211,211,211)" stop-opacity="1"/></linearGradient><linearGradient id="QTsyCWpdqcuG" x1="674px" x2="1722.4000014305116px" y1="1056.4000014305116px" y2="1056.4000014305116px" gradientUnits="userSpaceOnUse"><stop offset="0" stop-color="rgb(211,211,211)" stop-opacity="1"/><stop offset="1" stop-color="rgb(211,211,211)" stop-opacity="1"/></linearGradient><linearGradient id="dvlQgxufdPGH" x1="400px" x2="1198.2000007152558px" y1="439px" y2="689.2000007152558px" gradientUnits="userSpaceOnUse"><stop offset="0" stop-color="rgb(211,211,211)" stop-opacity="1"/><stop offset="1" stop-color="rgb(211,211,211)" stop-opacity="1"/></linearGradient><linearGradient id="kvIgguuptGZW" x1="1722.4000014305116px" x2="674px" y1="400px" y2="1512.600002861023px" gradientUnits="userSpaceOnUse"><stop offset="0" stop-color="rgb(211,211,211)" stop-opacity="1"/><stop offset="1" stop-color="rgb(211,211,211)" stop-opacity="1"/></linearGradient><linearGradient id="vNsimPDmbdro" x1="400px" x2="400px" y1="1473.600002861023px" y2="767.2000007152558px" gradientUnits="userSpaceOnUse"><stop offset="0" stop-color="rgb(211,211,211)" stop-opacity="1"/><stop offset="1" stop-color="rgb(211,211,211)" stop-opacity="1"/></linearGradient><linearGradient id="AAXCnWbadTmI" x1="674px" x2="706px" y1="1512.600002861023px" y2="1512.600002861023px" gradientUnits="userSpaceOnUse"><stop offset="0" stop-color="rgb(211,211,211)" stop-opacity="1"/><stop offset="1" stop-color="rgb(211,211,211)" stop-opacity="1"/></linearGradient><linearGradient id="rvDDtSnnykFW" x1="980px" x2="400px" y1="1473.600002861023px" y2="767.2000007152558px" gradientUnits="userSpaceOnUse"><stop offset="0" stop-color="rgb(211,211,211)" stop-opacity="1"/><stop offset="1" stop-color="rgb(211,211,211)" stop-opacity="1"/></linearGradient><linearGradient id="TvSkcXkWmHbe" x1="1198.2000007152558px" x2="400px" y1="1095.4000014305116px" y2="1473.600002861023px" gradientUnits="userSpaceOnUse"><stop offset="0" stop-color="rgb(211,211,211)" stop-opacity="1"/><stop offset="1" stop-color="rgb(211,211,211)" stop-opacity="1"/></linearGradient><linearGradient id="wZheWXcrQJPW" x1="1472.2000007152558px" x2="1722.4000014305116px" y1="1056.4000014305116px" y2="1184.4000021457673px" gradientUnits="userSpaceOnUse"><stop offset="0" stop-color="rgb(211,211,211)" stop-opacity="1"/><stop offset="1" stop-color="rgb(211,211,211)" stop-opacity="1"/></linearGradient></defs><g transform="translate(59,9.5) scale(0.2,0.2)"><path fill="rgb(244,236,255)" stroke="rgb(255,255,255)" paint-order="fill stroke markers" d=" M 1169.2000007152558 -45.5 L 2623.4000014305116 -45.5 L 2623.4000014305116 -45.5 A 8 8 0 0 1 2631.4000014305116 -37.5 L 2631.4000014305116 1962.600002861023 L 2631.4000014305116 1962.600002861023 A 8 8 0 0 1 2623.4000014305116 1970.600002861023 L -285 1970.600002861023 L -285 1970.600002861023 A 8 8 0 0 1 -293 1962.600002861023 L -293 -37.5 L -293 -37.5 A 8 8 0 0 1 -285 -45.5 L 1169.2000007152558 -45.5 Z" fill-opacity="1" stroke-opacity="1" stroke-miterlimit="10" stroke-width="2"/><text fill="rgb(0,0,0)" stroke="none" font-family="Avenir, Helvetica, Arial, sans-serif" font-size="32px" font-style="normal" font-weight="bold" text-decoration="normal" x="1169.2000007152558" y="29.5" text-anchor="middle" dominant-baseline="text-after-edge" fill-opacity="1">.</text><path fill="rgb(255,255,255)" stroke="rgb(211,211,211)" paint-order="fill stroke markers" d=" M 1169.2000007152558 156 L 2421.9000014305116 156 L 2421.9000014305116 156 A 8 8 0 0 1 2429.9000014305116 164 L 2429.9000014305116 1761.100002861023 L 2429.9000014305116 1761.100002861023 A 8 8 0 0 1 2421.9000014305116 1769.100002861023 L -83.5 1769.100002861023 L -83.5 1769.100002861023 A 8 8 0 0 1 -91.5 1761.100002861023 L -91.5 164 L -91.5 164 A 8 8 0 0 1 -83.5 156 L 1169.2000007152558 156 Z" fill-opacity="1" stroke-opacity="1" stroke-miterlimit="10"/><text fill="rgb(0,0,0)" stroke="none" font-family="Avenir, Helvetica, Arial, sans-serif" font-size="32px" font-style="normal" font-weight="bold" text-decoration="normal" x="1169.2000007152558" y="231" text-anchor="middle" dominant-baseline="text-after-edge" fill-opacity="1">main.tf</text><path fill="rgb(255,255,255)" stroke="rgb(0,0,0)" paint-order="fill stroke markers" d=" M 400 305 L 722 305 L 722 305 A 8 8 0 0 1 730 313 L 730 487 L 730 487 A 8 8 0 0 1 722 495 L 78 495 L 78 495 A 8 8 0 0 1 70 487 L 70 313 L 70 313 A 8 8 0 0 1 78 305 L 400 305 Z" fill-opacity="1" stroke-opacity="1" stroke-miterlimit="10" stroke-width="5"/><rect fill="rgb(255,255,255)" stroke="none" x="213.5" y="256" width="373" height="96" fill-opacity="1"/><text fill="rgb(0,0,0)" stroke="none" font-family="Avenir, Helvetica, Arial, sans-serif" font-size="32px" font-style="normal" font-weight="bold" text-decoration="normal" x="400" y="320" text-anchor="middle" dominant-baseline="text-after-edge" fill-opacity="1">aws_route53_record</text><path fill="rgb(255,255,255)" stroke="rgb(0,0,0)" paint-order="fill stroke markers" d=" M 1198.2000007152558 305 L 1520.2000007152558 305 L 1520.2000007152558 305 A 8 8 0 0 1 1528.2000007152558 313 L 1528.2000007152558 487 L 1528.2000007152558 487 A 8 8 0 0 1 1520.2000007152558 495 L 876.2000007152558 495 L 876.2000007152558 495 A 8 8 0 0 1 868.2000007152558 487 L 868.2000007152558 313 L 868.2000007152558 313 A 8 8 0 0 1 876.2000007152558 305 L 1198.2000007152558 305 Z" fill-opacity="1" stroke-opacity="1" stroke-miterlimit="10" stroke-width="5"/><rect fill="rgb(255,255,255)" stroke="none" x="954.7000007152558" y="256" width="487" height="96" fill-opacity="1"/><text fill="rgb(0,0,0)" stroke="none" font-family="Avenir, Helvetica, Arial, sans-serif" font-size="32px" font-style="normal" font-weight="bold" text-decoration="normal" x="1198.2000007152558" y="320" text-anchor="middle" dominant-baseline="text-after-edge" fill-opacity="1">aws_cloudfront_distribution</text><path fill="rgb(255,255,255)" stroke="rgb(0,0,0)" paint-order="fill stroke markers" d=" M 1996.4000014305116 305 L 2318.4000014305116 305 L 2318.4000014305116 305 A 8 8 0 0 1 2326.4000014305116 313 L 2326.4000014305116 487 L 2326.4000014305116 487 A 8 8 0 0 1 2318.4000014305116 495 L 1674.4000014305116 495 L 1674.4000014305116 495 A 8 8 0 0 1 1666.4000014305116 487 L 1666.4000014305116 313 L 1666.4000014305116 313 A 8 8 0 0 1 1674.4000014305116 305 L 1996.4000014305116 305 Z" fill-opacity="1" stroke-opacity="1" stroke-miterlimit="10" stroke-width="5"/><rect fill="rgb(255,255,255)" stroke="none" x="1836.9000014305116" y="256" width="319" height="96" fill-opacity="1"/><text fill="rgb(0,0,0)" stroke="none" font-family="Avenir, Helvetica, Arial, sans-serif" font-size="32px" font-style="normal" font-weight="bold" text-decoration="normal" x="1996.4000014305116" y="320" text-anchor="middle" dominant-baseline="text-after-edge" fill-opacity="1">aws_db_instance</text><path fill="rgb(255,255,255)" stroke="rgb(0,0,0)" paint-order="fill stroke markers" d=" M 690 1359.600002861023 L 1360 1359.600002861023 L 1360 1359.600002861023 A 8 8 0 0 1 1368 1367.600002861023 L 1368 1657.600002861023 L 1368 1657.600002861023 A 8 8 0 0 1 1360 1665.600002861023 L 20 1665.600002861023 L 20 1665.600002861023 A 8 8 0 0 1 12 1657.600002861023 L 12 1367.600002861023 L 12 1367.600002861023 A 8 8 0 0 1 20 1359.600002861023 L 690 1359.600002861023 Z" fill-opacity="1" stroke-opacity="1" stroke-miterlimit="10" stroke-width="5"/><rect fill="rgb(255,255,255)" stroke="none" x="508" y="1310.600002861023" width="364" height="96" fill-opacity="1"/><text fill="rgb(0,0,0)" stroke="none" font-family="Avenir, Helvetica, Arial, sans-serif" font-size="32px" font-style="normal" font-weight="bold" text-decoration="normal" x="690" y="1374.600002861023" text-anchor="middle" dominant-baseline="text-after-edge" fill-opacity="1">aws_security_group</text><path fill="rgb(255,255,255)" stroke="rgb(0,0,0)" paint-order="fill stroke markers" d=" M 400 633.2000007152558 L 722 633.2000007152558 L 722 633.2000007152558 A 8 8 0 0 1 730 641.2000007152558 L 730 815.2000007152558 L 730 815.2000007152558 A 8 8 0 0 1 722 823.2000007152558 L 78 823.2000007152558 L 78 823.2000007152558 A 8 8 0 0 1 70 815.2000007152558 L 70 641.2000007152558 L 70 641.2000007152558 A 8 8 0 0 1 78 633.2000007152558 L 400 633.2000007152558 Z" fill-opacity="1" stroke-opacity="1" stroke-miterlimit="10" stroke-width="5"/><rect fill="rgb(255,255,255)" stroke="none" x="304" y="584.2000007152558" width="192" height="96" fill-opacity="1"/><text fill="rgb(0,0,0)" stroke="none" font-family="Avenir, Helvetica, Arial, sans-serif" font-size="32px" font-style="normal" font-weight="bold" text-decoration="normal" x="400" y="648.2000007152558" text-anchor="middle" dominant-baseline="text-after-edge" fill-opacity="1">aws_vpc</text><path fill="rgb(255,255,255)" stroke="rgb(0,0,0)" paint-order="fill stroke markers" d=" M 1198.2000007152558 961.4000014305116 L 1520.2000007152558 961.4000014305116 L 1520.2000007152558 961.4000014305116 A 8 8 0 0 1 1528.2000007152558 969.4000014305116 L 1528.2000007152558 1271.4000021457673 L 1528.2000007152558 1271.4000021457673 A 8 8 0 0 1 1520.2000007152558 1279.4000021457673 L 876.2000007152558 1279.4000021457673 L 876.2000007152558 1279.4000021457673 A 8 8 0 0 1 868.2000007152558 1271.4000021457673 L 868.2000007152558 969.4000014305116 L 868.2000007152558 969.4000014305116 A 8 8 0 0 1 876.2000007152558 961.4000014305116 L 1198.2000007152558 961.4000014305116 Z" fill-opacity="1" stroke-opacity="1" stroke-miterlimit="10" stroke-width="5"/><rect fill="rgb(255,255,255)" stroke="none" x="1066.7000007152558" y="912.4000014305116" width="263" height="96" fill-opacity="1"/><text fill="rgb(0,0,0)" stroke="none" font-family="Avenir, Helvetica, Arial, sans-serif" font-size="32px" font-style="normal" font-weight="bold" text-decoration="normal" x="1198.2000007152558" y="976.4000014305116" text-anchor="middle" dominant-baseline="text-after-edge" fill-opacity="1">aws_instance</text><path fill="rgb(255,255,255)" stroke="rgb(0,0,0)" paint-order="fill stroke markers" d=" M 1198.2000007152558 633.2000007152558 L 1520.2000007152558 633.2000007152558 L 1520.2000007152558 633.2000007152558 A 8 8 0 0 1 1528.2000007152558 641.2000007152558 L 1528.2000007152558 815.2000007152558 L 1528.2000007152558 815.2000007152558 A 8 8 0 0 1 1520.2000007152558 823.2000007152558 L 876.2000007152558 823.2000007152558 L 876.2000007152558 823.2000007152558 A 8 8 0 0 1 868.2000007152558 815.2000007152558 L 868.2000007152558 641.2000007152558 L 868.2000007152558 641.2000007152558 A 8 8 0 0 1 876.2000007152558 633.2000007152558 L 1198.2000007152558 633.2000007152558 Z" fill-opacity="1" stroke-opacity="1" stroke-miterlimit="10" stroke-width="5"/><rect fill="rgb(255,255,255)" stroke="none" x="1024.7000007152558" y="584.2000007152558" width="347" height="96" fill-opacity="1"/><text fill="rgb(0,0,0)" stroke="none" font-family="Avenir, Helvetica, Arial, sans-serif" font-size="32px" font-style="normal" font-weight="bold" text-decoration="normal" x="1198.2000007152558" y="648.2000007152558" text-anchor="middle" dominant-baseline="text-after-edge" fill-opacity="1">aws_route53_zone</text><path fill="rgb(255,255,255)" stroke="rgb(0,0,0)" paint-order="fill stroke markers" d=" M 1996.4000014305116 633.2000007152558 L 2318.4000014305116 633.2000007152558 L 2318.4000014305116 633.2000007152558 A 8 8 0 0 1 2326.4000014305116 641.2000007152558 L 2326.4000014305116 815.2000007152558 L 2326.4000014305116 815.2000007152558 A 8 8 0 0 1 2318.4000014305116 823.2000007152558 L 1674.4000014305116 823.2000007152558 L 1674.4000014305116 823.2000007152558 A 8 8 0 0 1 1666.4000014305116 815.2000007152558 L 1666.4000014305116 641.2000007152558 L 1666.4000014305116 641.2000007152558 A 8 8 0 0 1 1674.4000014305116 633.2000007152558 L 1996.4000014305116 633.2000007152558 Z" fill-opacity="1" stroke-opacity="1" stroke-miterlimit="10" stroke-width="5"/><rect fill="rgb(255,255,255)" stroke="none" x="1850.4000014305116" y="584.2000007152558" width="292" height="96" fill-opacity="1"/><text fill="rgb(0,0,0)" stroke="none" font-family="Avenir, Helvetica, Arial, sans-serif" font-size="32px" font-style="normal" font-weight="bold" text-decoration="normal" x="1996.4000014305116" y="648.2000007152558" text-anchor="middle" dominant-baseline="text-after-edge" fill-opacity="1">aws_s3_bucket</text><path fill="rgb(255,255,255)" stroke="rgb(0,0,0)" paint-order="fill stroke markers" d=" M 1996.4000014305116 961.4000014305116 L 2318.4000014305116 961.4000014305116 L 2318.4000014305116 961.4000014305116 A 8 8 0 0 1 2326.4000014305116 969.4000014305116 L 2326.4000014305116 1271.4000021457673 L 2326.4000014305116 1271.4000021457673 A 8 8 0 0 1 2318.4000014305116 1279.4000021457673 L 1674.4000014305116 1279.4000021457673 L 1674.4000014305116 1279.4000021457673 A 8 8 0 0 1 1666.4000014305116 1271.4000021457673 L 1666.4000014305116 969.4000014305116 L 1666.4000014305116 969.4000014305116 A 8 8 0 0 1 1674.4000014305116 961.4000014305116 L 1996.4000014305116 961.4000014305116 Z" fill-opacity="1" stroke-opacity="1" stroke-miterlimit="10" stroke-width="5"/><rect fill="rgb(255,255,255)" stroke="none" x="1875.4000014305116" y="912.4000014305116" width="242" height="96" fill-opacity="1"/><text fill="rgb(0,0,0)" stroke="none" font-family="Avenir, Helvetica, Arial, sans-serif" font-size="32px" font-style="normal" font-weight="bold" text-decoration="normal" x="1996.4000014305116" y="976.4000014305116" text-anchor="middle" dominant-baseline="text-after-edge" fill-opacity="1">aws_subnet</text><path fill="rgb(255,255,255)" stroke="rgb(0,0,0)" paint-order="fill stroke markers" d=" M 400 961.4000014305116 L 722 961.4000014305116 L 722 961.4000014305116 A 8 8 0 0 1 730 969.4000014305116 L 730 1143.4000014305116 L 730 1143.4000014305116 A 8 8 0 0 1 722 1151.4000014305116 L 78 1151.4000014305116 L 78 1151.4000014305116 A 8 8 0 0 1 70 1143.4000014305116 L 70 969.4000014305116 L 70 969.4000014305116 A 8 8 0 0 1 78 961.4000014305116 L 400 961.4000014305116 Z" fill-opacity="1" stroke-opacity="1" stroke-miterlimit="10" stroke-width="5"/><rect fill="rgb(255,255,255)" stroke="none" x="307" y="912.4000014305116" width="186" height="96" fill-opacity="1"/><text fill="rgb(0,0,0)" stroke="none" font-family="Avenir, Helvetica, Arial, sans-serif" font-size="32px" font-style="normal" font-weight="bold" text-decoration="normal" x="400" y="976.4000014305116" text-anchor="middle" dominant-baseline="text-after-edge" fill-opacity="1">aws_elb</text><path fill="none" stroke="url(#xddinhrslDRU)" paint-order="fill stroke markers" d=" M 1722.4000014305116 1056.4000014305116 L 1198.2000007152558 1056.4000014305116 L 1198.2000007152558 728.2000007152558 L 674 728.2000007152558" stroke-linejoin="round" stroke-miterlimit="10" stroke-width="10"/><path fill="none" stroke="url(#kvybazOBbMQG)" paint-order="fill stroke markers" d=" M 1198.2000007152558 1223.4000021457673 L 1198.2000007152558 1348.500002503395 L 980 1348.500002503395 L 980 1473.600002861023" stroke-linejoin="round" stroke-miterlimit="10" stroke-width="10"/><path fill="none" stroke="url(#UMidanXEkfPp)" paint-order="fill stroke markers" d=" M 1472.2000007152558 1184.4000021457673 L 1597.3000010728838 1184.4000021457673 L 1597.3000010728838 1056.4000014305116 L 1722.4000014305116 1056.4000014305116" stroke-linejoin="round" stroke-miterlimit="10" stroke-width="10"/><path fill="none" stroke="url(#ZvTqXbRQsUbo)" paint-order="fill stroke markers" d=" M 1722.4000014305116 1184.4000021457673 L 1198.2000007152558 1184.4000021457673 L 1198.2000007152558 728.2000007152558 L 674 728.2000007152558" stroke-linejoin="round" stroke-miterlimit="10" stroke-width="10"/><path fill="none" stroke="url(#fJZlQypFXpfp)" paint-order="fill stroke markers" d=" M 400 1095.4000014305116 L 400 1284.5000021457672 L 980 1284.5000021457672 L 980 1473.600002861023" stroke-linejoin="round" stroke-miterlimit="10" stroke-width="10"/><path fill="none" stroke="url(#QTsyCWpdqcuG)" paint-order="fill stroke markers" d=" M 674 1056.4000014305116 L 1198.2000007152558 1056.4000014305116 L 1198.2000007152558 1056.4000014305116 L 1722.4000014305116 1056.4000014305116" stroke-linejoin="round" stroke-miterlimit="10" stroke-width="10"/><path fill="none" stroke="url(#dvlQgxufdPGH)" paint-order="fill stroke markers" d=" M 400 439 L 400 564.1000003576279 L 1198.2000007152558 564.1000003576279 L 1198.2000007152558 689.2000007152558" stroke-linejoin="round" stroke-miterlimit="10" stroke-width="10"/><path fill="none" stroke="url(#kvIgguuptGZW)" paint-order="fill stroke markers" d=" M 1722.4000014305116 400 L 1198.2000007152558 400 L 1198.2000007152558 1512.600002861023 L 674 1512.600002861023" stroke-linejoin="round" stroke-miterlimit="10" stroke-width="10"/><path fill="none" stroke="url(#vNsimPDmbdro)" paint-order="fill stroke markers" d=" M 400 1473.600002861023 L 400 1120.4000017881394 L 400 1120.4000017881394 L 400 767.2000007152558" stroke-linejoin="round" stroke-miterlimit="10" stroke-width="10"/><path fill="none" stroke="url(#AAXCnWbadTmI)" paint-order="fill stroke markers" d=" M 674 1512.600002861023 L 690 1512.600002861023 L 690 1512.600002861023 L 706 1512.600002861023" stroke-linejoin="round" stroke-miterlimit="10" stroke-width="10"/><path fill="none" stroke="url(#rvDDtSnnykFW)" paint-order="fill stroke markers" d=" M 980 1473.600002861023 L 980 1120.4000017881394 L 400 1120.4000017881394 L 400 767.2000007152558" stroke-linejoin="round" stroke-miterlimit="10" stroke-width="10"/><path fill="none" stroke="url(#TvSkcXkWmHbe)" paint-order="fill stroke markers" d=" M 1198.2000007152558 1095.4000014305116 L 1198.2000007152558 1284.5000021457672 L 400 1284.5000021457672 L 400 1473.600002861023" stroke-linejoin="round" stroke-miterlimit="10" stroke-width="10"/><path fill="none" stroke="url(#wZheWXcrQJPW)" paint-order="fill stroke markers" d=" M 1472.2000007152558 1056.4000014305116 L 1597.3000010728838 1056.4000014305116 L 1597.3000010728838 1184.4000021457673 L 1722.4000014305116 1184.4000021457673" stroke-linejoin="round" stroke-miterlimit="10" stroke-width="10"/><path fill="rgb(40,167,69)" stroke="url(#wZheWXcrQJPW)" paint-order="stroke fill markers" d=" M 400 361 L 666 361 L 666 361 A 8 8 0 0 1 674 369 L 674 431 L 674 431 A 8 8 0 0 1 666 439 L 134 439 L 134 439 A 8 8 0 0 1 126 431 L 126 369 L 126 369 A 8 8 0 0 1 134 361 L 400 361 Z" fill-opacity="1"/><text fill="rgb(255,255,255)" stroke="none" font-family="Avenir, Helvetica, Arial, sans-serif" font-size="32px" font-style="normal" font-weight="bold" text-decoration="normal" x="400" y="416" text-anchor="middle" dominant-baseline="text-after-edge" fill-opacity="1">main</text><path fill="rgb(40,167,69)" stroke="none" paint-order="stroke fill markers" d=" M 1198.2000007152558 361 L 1464.2000007152558 361 L 1464.2000007152558 361 A 8 8 0 0 1 1472.2000007152558 369 L 1472.2000007152558 431 L 1472.2000007152558 431 A 8 8 0 0 1 1464.2000007152558 439 L 932.2000007152558 439 L 932.2000007152558 439 A 8 8 0 0 1 924.2000007152558 431 L 924.2000007152558 369 L 924.2000007152558 369 A 8 8 0 0 1 932.2000007152558 361 L 1198.2000007152558 361 Z" fill-opacity="1"/><text fill="rgb(255,255,255)" stroke="none" font-family="Avenir, Helvetica, Arial, sans-serif" font-size="32px" font-style="normal" font-weight="bold" text-decoration="normal" x="1198.2000007152558" y="416" text-anchor="middle" dominant-baseline="text-after-edge" fill-opacity="1">main</text><path fill="rgb(40,167,69)" stroke="none" paint-order="stroke fill markers" d=" M 1996.4000014305116 361 L 2262.4000014305116 361 L 2262.4000014305116 361 A 8 8 0 0 1 2270.4000014305116 369 L 2270.4000014305116 431 L 2270.4000014305116 431 A 8 8 0 0 1 2262.4000014305116 439 L 1730.4000014305116 439 L 1730.4000014305116 439 A 8 8 0 0 1 1722.4000014305116 431 L 1722.4000014305116 369 L 1722.4000014305116 369 A 8 8 0 0 1 1730.4000014305116 361 L 1996.4000014305116 361 Z" fill-opacity="1"/><text fill="rgb(255,255,255)" stroke="none" font-family="Avenir, Helvetica, Arial, sans-serif" font-size="32px" font-style="normal" font-weight="bold" text-decoration="normal" x="1996.4000014305116" y="416" text-anchor="middle" dominant-baseline="text-after-edge" fill-opacity="1">postgres</text><path fill="rgb(40,167,69)" stroke="none" paint-order="stroke fill markers" d=" M 400 1473.600002861023 L 666 1473.600002861023 L 666 1473.600002861023 A 8 8 0 0 1 674 1481.600002861023 L 674 1543.600002861023 L 674 1543.600002861023 A 8 8 0 0 1 666 1551.600002861023 L 134 1551.600002861023 L 134 1551.600002861023 A 8 8 0 0 1 126 1543.600002861023 L 126 1481.600002861023 L 126 1481.600002861023 A 8 8 0 0 1 134 1473.600002861023 L 400 1473.600002861023 Z" fill-opacity="1"/><text fill="rgb(255,255,255)" stroke="none" font-family="Avenir, Helvetica, Arial, sans-serif" font-size="32px" font-style="normal" font-weight="bold" text-decoration="normal" x="400" y="1528.600002861023" text-anchor="middle" dominant-baseline="text-after-edge" fill-opacity="1">private</text><path fill="rgb(40,167,69)" stroke="none" paint-order="stroke fill markers" d=" M 980 1473.600002861023 L 1246 1473.600002861023 L 1246 1473.600002861023 A 8 8 0 0 1 1254 1481.600002861023 L 1254 1543.600002861023 L 1254 1543.600002861023 A 8 8 0 0 1 1246 1551.600002861023 L 714 1551.600002861023 L 714 1551.600002861023 A 8 8 0 0 1 706 1543.600002861023 L 706 1481.600002861023 L 706 1481.600002861023 A 8 8 0 0 1 714 1473.600002861023 L 980 1473.600002861023 Z" fill-opacity="1"/><text fill="rgb(255,255,255)" stroke="none" font-family="Avenir, Helvetica, Arial, sans-serif" font-size="32px" font-style="normal" font-weight="bold" text-decoration="normal" x="980" y="1528.600002861023" text-anchor="middle" dominant-baseline="text-after-edge" fill-opacity="1">public</text><path fill="rgb(40,167,69)" stroke="none" paint-order="stroke fill markers" d=" M 400 689.2000007152558 L 666 689.2000007152558 L 666 689.2000007152558 A 8 8 0 0 1 674 697.2000007152558 L 674 759.2000007152558 L 674 759.2000007152558 A 8 8 0 0 1 666 767.2000007152558 L 134 767.2000007152558 L 134 767.2000007152558 A 8 8 0 0 1 126 759.2000007152558 L 126 697.2000007152558 L 126 697.2000007152558 A 8 8 0 0 1 134 689.2000007152558 L 400 689.2000007152558 Z" fill-opacity="1"/><text fill="rgb(255,255,255)" stroke="none" font-family="Avenir, Helvetica, Arial, sans-serif" font-size="32px" font-style="normal" font-weight="bold" text-decoration="normal" x="400" y="744.2000007152558" text-anchor="middle" dominant-baseline="text-after-edge" fill-opacity="1">main</text><path fill="rgb(40,167,69)" stroke="none" paint-order="stroke fill markers" d=" M 1198.2000007152558 1017.4000014305116 L 1464.2000007152558 1017.4000014305116 L 1464.2000007152558 1017.4000014305116 A 8 8 0 0 1 1472.2000007152558 1025.4000014305116 L 1472.2000007152558 1087.4000014305116 L 1472.2000007152558 1087.4000014305116 A 8 8 0 0 1 1464.2000007152558 1095.4000014305116 L 932.2000007152558 1095.4000014305116 L 932.2000007152558 1095.4000014305116 A 8 8 0 0 1 924.2000007152558 1087.4000014305116 L 924.2000007152558 1025.4000014305116 L 924.2000007152558 1025.4000014305116 A 8 8 0 0 1 932.2000007152558 1017.4000014305116 L 1198.2000007152558 1017.4000014305116 Z" fill-opacity="1"/><text fill="rgb(255,255,255)" stroke="none" font-family="Avenir, Helvetica, Arial, sans-serif" font-size="32px" font-style="normal" font-weight="bold" text-decoration="normal" x="1198.2000007152558" y="1072.4000014305116" text-anchor="middle" dominant-baseline="text-after-edge" fill-opacity="1">app</text><path fill="rgb(40,167,69)" stroke="none" paint-order="stroke fill markers" d=" M 1198.2000007152558 689.2000007152558 L 1464.2000007152558 689.2000007152558 L 1464.2000007152558 689.2000007152558 A 8 8 0 0 1 1472.2000007152558 697.2000007152558 L 1472.2000007152558 759.2000007152558 L 1472.2000007152558 759.2000007152558 A 8 8 0 0 1 1464.2000007152558 767.2000007152558 L 932.2000007152558 767.2000007152558 L 932.2000007152558 767.2000007152558 A 8 8 0 0 1 924.2000007152558 759.2000007152558 L 924.2000007152558 697.2000007152558 L 924.2000007152558 697.2000007152558 A 8 8 0 0 1 932.2000007152558 689.2000007152558 L 1198.2000007152558 689.2000007152558 Z" fill-opacity="1"/><text fill="rgb(255,255,255)" stroke="none" font-family="Avenir, Helvetica, Arial, sans-serif" font-size="32px" font-style="normal" font-weight="bold" text-decoration="normal" x="1198.2000007152558" y="744.2000007152558" text-anchor="middle" dominant-baseline="text-after-edge" fill-opacity="1">main</text><path fill="rgb(40,167,69)" stroke="none" paint-order="stroke fill markers" d=" M 1996.4000014305116 689.2000007152558 L 2262.4000014305116 689.2000007152558 L 2262.4000014305116 689.2000007152558 A 8 8 0 0 1 2270.4000014305116 697.2000007152558 L 2270.4000014305116 759.2000007152558 L 2270.4000014305116 759.2000007152558 A 8 8 0 0 1 2262.4000014305116 767.2000007152558 L 1730.4000014305116 767.2000007152558 L 1730.4000014305116 767.2000007152558 A 8 8 0 0 1 1722.4000014305116 759.2000007152558 L 1722.4000014305116 697.2000007152558 L 1722.4000014305116 697.2000007152558 A 8 8 0 0 1 1730.4000014305116 689.2000007152558 L 1996.4000014305116 689.2000007152558 Z" fill-opacity="1"/><text fill="rgb(255,255,255)" stroke="none" font-family="Avenir, Helvetica, Arial, sans-serif" font-size="32px" font-style="normal" font-weight="bold" text-decoration="normal" x="1996.4000014305116" y="744.2000007152558" text-anchor="middle" dominant-baseline="text-after-edge" fill-opacity="1">static</text><path fill="rgb(40,167,69)" stroke="none" paint-order="stroke fill markers" d=" M 1996.4000014305116 1017.4000014305116 L 2262.4000014305116 1017.4000014305116 L 2262.4000014305116 1017.4000014305116 A 8 8 0 0 1 2270.4000014305116 1025.4000014305116 L 2270.4000014305116 1087.4000014305116 L 2270.4000014305116 1087.4000014305116 A 8 8 0 0 1 2262.4000014305116 1095.4000014305116 L 1730.4000014305116 1095.4000014305116 L 1730.4000014305116 1095.4000014305116 A 8 8 0 0 1 1722.4000014305116 1087.4000014305116 L 1722.4000014305116 1025.4000014305116 L 1722.4000014305116 1025.4000014305116 A 8 8 0 0 1 1730.4000014305116 1017.4000014305116 L 1996.4000014305116 1017.4000014305116 Z" fill-opacity="1"/><text fill="rgb(255,255,255)" stroke="none" font-family="Avenir, Helvetica, Arial, sans-serif" font-size="32px" font-style="normal" font-weight="bold" text-decoration="normal" x="1996.4000014305116" y="1072.4000014305116" text-anchor="middle" dominant-baseline="text-after-edge" fill-opacity="1">public</text><path fill="rgb(40,167,69)" stroke="none" paint-order="stroke fill markers" d=" M 1198.2000007152558 1145.4000021457673 L 1464.2000007152558 1145.4000021457673 L 1464.2000007152558 1145.4000021457673 A 8 8 0 0 1 1472.2000007152558 1153.4000021457673 L 1472.2000007152558 1215.4000021457673 L 1472.2000007152558 1215.4000021457673 A 8 8 0 0 1 1464.2000007152558 1223.4000021457673 L 932.2000007152558 1223.4000021457673 L 932.2000007152558 1223.4000021457673 A 8 8 0 0 1 924.2000007152558 1215.4000021457673 L 924.2000007152558 1153.4000021457673 L 924.2000007152558 1153.4000021457673 A 8 8 0 0 1 932.2000007152558 1145.4000021457673 L 1198.2000007152558 1145.4000021457673 Z" fill-opacity="1"/><text fill="rgb(255,255,255)" stroke="none" font-family="Avenir, Helvetica, Arial, sans-serif" font-size="32px" font-style="normal" font-weight="bold" text-decoration="normal" x="1198.2000007152558" y="1200.4000021457673" text-anchor="middle" dominant-baseline="text-after-edge" fill-opacity="1">web</text><path fill="rgb(40,167,69)" stroke="none" paint-order="stroke fill markers" d=" M 1996.4000014305116 1145.4000021457673 L 2262.4000014305116 1145.4000021457673 L 2262.4000014305116 1145.4000021457673 A 8 8 0 0 1 2270.4000014305116 1153.4000021457673 L 2270.4000014305116 1215.4000021457673 L 2270.4000014305116 1215.4000021457673 A 8 8 0 0 1 2262.4000014305116 1223.4000021457673 L 1730.4000014305116 1223.4000021457673 L 1730.4000014305116 1223.4000021457673 A 8 8 0 0 1 1722.4000014305116 1215.4000021457673 L 1722.4000014305116 1153.4000021457673 L 1722.4000014305116 1153.4000021457673 A 8 8 0 0 1 1730.4000014305116 1145.4000021457673 L 1996.4000014305116 1145.4000021457673 Z" fill-opacity="1"/><text fill="rgb(255,255,255)" stroke="none" font-family="Avenir, Helvetica, Arial, sans-serif" font-size="32px" font-style="normal" font-weight="bold" text-decoration="normal" x="1996.4000014305116" y="1200.4000021457673" text-anchor="middle" dominant-baseline="text-after-edge" fill-opacity="1">private</text><path fill="rgb(40,167,69)" stroke="none" paint-order="stroke fill markers" d=" M 400 1017.4000014305116 L 666 1017.4000014305116 L 666 1017.4000014305116 A 8 8 0 0 1 674 1025.4000014305116 L 674 1087.4000014305116 L 674 1087.4000014305116 A 8 8 0 0 1 666 1095.4000014305116 L 134 1095.4000014305116 L 134 1095.4000014305116 A 8 8 0 0 1 126 1087.4000014305116 L 126 1025.4000014305116 L 126 1025.4000014305116 A 8 8 0 0 1 134 1017.4000014305116 L 400 1017.4000014305116 Z" fill-opacity="1"/><text fill="rgb(255,255,255)" stroke="none" font-family="Avenir, Helvetica, Arial, sans-serif" font-size="32px" font-style="normal" font-weight="bold" text-decoration="normal" x="400" y="1072.4000014305116" text-anchor="middle" dominant-baseline="text-after-edge" fill-opacity="1">main</text><g transform="scale(5,5) translate(-59,-9.5)"/></g></svg>